<svg id="Layer_1" data-name="Layer 1" xmlns="http://www.w3.org/2000/svg" xmlns:xlink="http://www.w3.org/1999/xlink" viewBox="0 0 50.55 80.3"><defs><style>.cls-1,.cls-4{fill:none;}.cls-2{clip-path:url(#clip-path);}.cls-3{fill:#005596;}.cls-4{stroke:#005596;stroke-miterlimit:10;stroke-width:0.32px;}.cls-5{fill:#ebab21;}</style><clipPath id="clip-path" transform="translate(-476.84 -244.8)"><rect class="cls-1" x="476.84" y="244.8" width="50.55" height="80.3"/></clipPath></defs><title>rcgc-torch</title><g class="cls-2"><path class="cls-3" d="M493.11,295.34c-.15.11-.93.52-1.46.78-.19.08-.15.37-.07.52a59.16,59.16,0,0,0,5.63,8.81,5.27,5.27,0,0,0,3.21,1.87c.37.07.67.37.67.52s-.34.48-.6.56a10.12,10.12,0,0,1-2.5.3c-3.4,0-4.85-1.34-5.64-2.43-1-1.42-2.95-4.48-4.52-7.16a6.5,6.5,0,0,0-1.19-1.57,3.42,3.42,0,0,0-1.79-.49.52.52,0,0,0-.41.37c-.07.75,0,5.71.11,7.43s.37,2,2.09,2.43c.63.19.9.45.9.71s-.71.56-1.16.56c-1.31,0-2.95-.22-4.78-.22-1.31,0-3.17.15-3.58.15-.93,0-1.19-.26-1.19-.6s.41-.45.9-.6c1.72-.52,2.13-1,2.24-2.16.22-2.87.22-6,.22-9.18,0-4-.08-7.17-.19-8.17s-.41-1.46-2.16-1.87c-.52-.15-.93-.41-.93-.71s.45-.52,1.08-.52h2.72c1.38,0,4.48-.19,6.49-.19,1.72,0,4.7.15,6.49,1.64a6,6,0,0,1,2,4.44,5.88,5.88,0,0,1-2.61,4.78m-3.62-8.28a4.25,4.25,0,0,0-3-1.31A5.78,5.78,0,0,0,485,286a1.66,1.66,0,0,0-.45.78c-.11,1.27-.26,7.8-.11,8.77a.59.59,0,0,0,.48.45,9.61,9.61,0,0,0,4-.82,5.06,5.06,0,0,0,2.09-4.18,5.88,5.88,0,0,0-1.6-4" transform="translate(-476.84 -244.8)"/><path class="cls-3" d="M523.26,284.66a24.36,24.36,0,0,0,2.69.56c.26,0,.56.45.56,1,0,1,.11,2.35.19,3.43,0,.78-.22,1.42-.63,1.42-.19,0-.52-.45-.71-1a5.61,5.61,0,0,0-1.57-2.65,8.63,8.63,0,0,0-5.52-2.16c-5.93,0-8.73,4.7-8.73,10.37a14.26,14.26,0,0,0,1.27,6.31,9.26,9.26,0,0,0,8.36,5.56,7.84,7.84,0,0,0,3.62-.86,8.39,8.39,0,0,0,3.25-3.4c.45-.82.71-1.16,1-1.16s.41,1,.3,1.38a17.31,17.31,0,0,1-1.12,3.25,3.07,3.07,0,0,1-1.34,1.19,20,20,0,0,1-6.53,1.08c-5.52,0-9.44-2.46-11-4.22a12.29,12.29,0,0,1-3.13-8.39,11.84,11.84,0,0,1,4.1-9,15.79,15.79,0,0,1,10.08-3.36,21,21,0,0,1,4.85.6" transform="translate(-476.84 -244.8)"/><path class="cls-3" d="M488.59,322.92a2,2,0,0,1-.52.24,2,2,0,0,1-.58.09,1.94,1.94,0,0,1-1.33-.53,1.92,1.92,0,0,1-.41-.57,1.62,1.62,0,0,1-.15-.7,1.68,1.68,0,0,1,.16-.73,1.78,1.78,0,0,1,.43-.57,2,2,0,0,1,.62-.37,2.13,2.13,0,0,1,.76-.14h1v0a1.77,1.77,0,0,0-.26-1,.85.85,0,0,0-.69-.43,4.43,4.43,0,0,0-.64.05,5,5,0,0,0-.72.17l-.2-.8a6.75,6.75,0,0,1,.79-.18,5,5,0,0,1,.79-.06,1.55,1.55,0,0,1,.66.17,1.88,1.88,0,0,1,.55.43,2,2,0,0,1,.38.63,2.5,2.5,0,0,1,.17.77v.11c0,.18,0,.37,0,.57s0,.37,0,.58v.65c0,.2,0,.39,0,.58a5.25,5.25,0,0,0,.06.54,2.85,2.85,0,0,0,.1.44.83.83,0,0,0,.14.28h-1.11Zm0-2.46h-1a1.25,1.25,0,0,0-.81.27.89.89,0,0,0-.34.73.82.82,0,0,0,.09.38,1,1,0,0,0,.23.3,1.09,1.09,0,0,0,.34.2,1.15,1.15,0,0,0,.42.07,1.24,1.24,0,0,0,.43-.07,1.07,1.07,0,0,0,.35-.2,1,1,0,0,0,.23-.3.82.82,0,0,0,.09-.37Z" transform="translate(-476.84 -244.8)"/><path class="cls-4" d="M488.59,322.92a2,2,0,0,1-.52.24,2,2,0,0,1-.58.09,1.94,1.94,0,0,1-1.33-.53,1.92,1.92,0,0,1-.41-.57,1.62,1.62,0,0,1-.15-.7,1.68,1.68,0,0,1,.16-.73,1.78,1.78,0,0,1,.43-.57,2,2,0,0,1,.62-.37,2.13,2.13,0,0,1,.76-.14h1v0a1.77,1.77,0,0,0-.26-1,.85.85,0,0,0-.69-.43,4.43,4.43,0,0,0-.64.05,5,5,0,0,0-.72.17l-.2-.8a6.75,6.75,0,0,1,.79-.18,5,5,0,0,1,.79-.06,1.55,1.55,0,0,1,.66.17,1.88,1.88,0,0,1,.55.43,2,2,0,0,1,.38.63,2.5,2.5,0,0,1,.17.77v.11c0,.18,0,.37,0,.57s0,.37,0,.58v.65c0,.2,0,.39,0,.58a5.25,5.25,0,0,0,.06.54,2.85,2.85,0,0,0,.1.44.83.83,0,0,0,.14.28h-1.11Zm0-2.46h-1a1.25,1.25,0,0,0-.81.27.89.89,0,0,0-.34.73.82.82,0,0,0,.09.38,1,1,0,0,0,.23.3,1.09,1.09,0,0,0,.34.2,1.15,1.15,0,0,0,.42.07,1.24,1.24,0,0,0,.43-.07,1.07,1.07,0,0,0,.35-.2,1,1,0,0,0,.23-.3.82.82,0,0,0,.09-.37Z" transform="translate(-476.84 -244.8)"/><polygon class="cls-3" points="14.4 70.6 14.4 72.71 15.83 72.71 15.83 73.54 14.4 73.54 14.4 78.33 13.59 78.33 13.59 73.54 12.79 73.54 12.79 72.71 13.57 72.71 13.57 70.6 14.4 70.6"/><polygon class="cls-4" points="14.4 70.6 14.4 72.71 15.83 72.71 15.83 73.54 14.4 73.54 14.4 78.33 13.59 78.33 13.59 73.54 12.79 73.54 12.79 72.71 13.57 72.71 13.57 70.6 14.4 70.6"/><path class="cls-3" d="M506.15,323a6.89,6.89,0,0,1-2.05,1.46,5.74,5.74,0,0,1-2.42.52,5.68,5.68,0,0,1-2.52-.57,6.67,6.67,0,0,1-2.05-1.54,7.32,7.32,0,0,1-1.39-2.28,7.87,7.87,0,0,1,0-5.58,7.47,7.47,0,0,1,1.39-2.29,6.62,6.62,0,0,1,2.05-1.55,5.69,5.69,0,0,1,2.52-.57,5.61,5.61,0,0,1,2.48.58,7.48,7.48,0,0,1,2.18,1.63l-1,1a6.06,6.06,0,0,0-1.71-1.28,4.26,4.26,0,0,0-1.91-.46,4.43,4.43,0,0,0-2,.44,4.91,4.91,0,0,0-1.58,1.22,6,6,0,0,0-1.07,1.82,6.28,6.28,0,0,0,1.07,6.26,5,5,0,0,0,1.58,1.24,4.34,4.34,0,0,0,2,.45,4.06,4.06,0,0,0,1.64-.34,5.34,5.34,0,0,0,1.39-.87v-3.37H501v-1.45h5.19v5.3Z" transform="translate(-476.84 -244.8)"/><path class="cls-4" d="M506.15,323a6.89,6.89,0,0,1-2.05,1.46,5.74,5.74,0,0,1-2.42.52,5.68,5.68,0,0,1-2.52-.57,6.67,6.67,0,0,1-2.05-1.54,7.32,7.32,0,0,1-1.39-2.28,7.87,7.87,0,0,1,0-5.58,7.47,7.47,0,0,1,1.39-2.29,6.62,6.62,0,0,1,2.05-1.55,5.69,5.69,0,0,1,2.52-.57,5.61,5.61,0,0,1,2.48.58,7.48,7.48,0,0,1,2.18,1.63l-1,1a6.06,6.06,0,0,0-1.71-1.28,4.26,4.26,0,0,0-1.91-.46,4.43,4.43,0,0,0-2,.44,4.91,4.91,0,0,0-1.58,1.22,6,6,0,0,0-1.07,1.82,6.28,6.28,0,0,0,1.07,6.26,5,5,0,0,0,1.58,1.24,4.34,4.34,0,0,0,2,.45,4.06,4.06,0,0,0,1.64-.34,5.34,5.34,0,0,0,1.39-.87v-3.37H501v-1.45h5.19v5.3Z" transform="translate(-476.84 -244.8)"/><path class="cls-3" d="M517.66,313.78a6.09,6.09,0,0,0-1.7-1.28,4.19,4.19,0,0,0-1.9-.46,4.32,4.32,0,0,0-1.92.44,5,5,0,0,0-1.57,1.21,5.76,5.76,0,0,0-1.06,1.8,6.25,6.25,0,0,0-.39,2.22,6.43,6.43,0,0,0,.38,2.21,6,6,0,0,0,1,1.82,4.93,4.93,0,0,0,1.56,1.24,4.3,4.3,0,0,0,2,.46,4.07,4.07,0,0,0,1.88-.46,6.73,6.73,0,0,0,1.7-1.26l1,1a7.92,7.92,0,0,1-2.16,1.62,5.35,5.35,0,0,1-2.44.59,5.49,5.49,0,0,1-2.45-.57,6.72,6.72,0,0,1-2.05-1.56,7.79,7.79,0,0,1-1.42-2.31,7.38,7.38,0,0,1-.53-2.79,7.51,7.51,0,0,1,.5-2.73,7.34,7.34,0,0,1,1.38-2.28,6.76,6.76,0,0,1,2.05-1.56,5.65,5.65,0,0,1,5,0,7.25,7.25,0,0,1,2.15,1.62Z" transform="translate(-476.84 -244.8)"/><path class="cls-4" d="M517.66,313.78a6.09,6.09,0,0,0-1.7-1.28,4.19,4.19,0,0,0-1.9-.46,4.32,4.32,0,0,0-1.92.44,5,5,0,0,0-1.57,1.21,5.76,5.76,0,0,0-1.06,1.8,6.25,6.25,0,0,0-.39,2.22,6.43,6.43,0,0,0,.38,2.21,6,6,0,0,0,1,1.82,4.93,4.93,0,0,0,1.56,1.24,4.3,4.3,0,0,0,2,.46,4.07,4.07,0,0,0,1.88-.46,6.73,6.73,0,0,0,1.7-1.26l1,1a7.92,7.92,0,0,1-2.16,1.62,5.35,5.35,0,0,1-2.44.59,5.49,5.49,0,0,1-2.45-.57,6.72,6.72,0,0,1-2.05-1.56,7.79,7.79,0,0,1-1.42-2.31,7.38,7.38,0,0,1-.53-2.79,7.51,7.51,0,0,1,.5-2.73,7.34,7.34,0,0,1,1.38-2.28,6.76,6.76,0,0,1,2.05-1.56,5.65,5.65,0,0,1,5,0,7.25,7.25,0,0,1,2.15,1.62Z" transform="translate(-476.84 -244.8)"/><path class="cls-5" d="M490.42,260.16s.19-2.72-1-3.56a3.41,3.41,0,0,0-2.35-.32,3.73,3.73,0,0,1,1.17,3c-.26,1.69-1.47,5-.87,7.68,1.12,4.92,3.45,8.28,10.2,8.28,0-.5-5.78-2.72-6.23-6.89a5.76,5.76,0,0,1,3.08-6c-.67,3.3-.49,5.06.49,7.43a9.91,9.91,0,0,0,5.77,5.51,27.91,27.91,0,0,1-2.13-2.63c-1.9-3,.72-6.06,2.38-6.9,2-1,3.51-1.36,3.71-3.54.32.85,1.74,2.81.07,4.8-1.46,1.74-2.37,1.23-3.27,3a4.57,4.57,0,0,0-.45,3.41,3.11,3.11,0,0,0,2.67,1.7c2.1-2.66,4.52-1.32,7.71-2.62a5.84,5.84,0,0,0,3.15-4.85,3.7,3.7,0,0,1-2.66,2.34c-1.57.34-2-.71-3-.68-1.19,0-3.09.4-3.6,1.55-.31,0,1.06-2.92,3.92-2.89a4,4,0,0,0,3.68-1.39c1.38-1.34,1.6-3.34,1.88-4.2a3.09,3.09,0,0,1,2.66-2.35,2.46,2.46,0,0,0-3.41-.46c-1.46,1.08-2,3-3.33,4.37a4.09,4.09,0,0,1-2.76,1.3s.32-2.41,1.46-3.36,2.68-1.87,3.07-3.28-.55-2.56-1-4.35a5.7,5.7,0,0,1,.79-3.82,4.19,4.19,0,0,0-2.8,2.37c-.55,1.17,0,3.81-1.17,4.72-1.42,1.11-2.41.2-5.46,1.54a17.46,17.46,0,0,0-4.59,3.22s-1.14-2.12,5.4-5.2c1.73-.81,3.24-1.6,3.55-3.21a2.86,2.86,0,0,0-.71-2.61s.38,1.24,0,1.84c-.55.88-2,.88-3.47,1.18.55-.46,1.81-1,2-4.32a5.88,5.88,0,0,0-2.6-5,3.09,3.09,0,0,1-.71,4.2c-2.24,1.58-7.35,1.81-9.24,4.07-.57.68-1.27,3,.55,3.79-.44,1.18-2.29,1.83-2.61,3.22" transform="translate(-476.84 -244.8)"/><rect class="cls-3" x="14.76" y="31.57" width="17.54" height="2.47"/><path class="cls-3" d="M493,279.82h14.84s-1.24,4-7.77,4c-5.69,0-7.07-4-7.07-4" transform="translate(-476.84 -244.8)"/><path class="cls-3" d="M496.4,284s1.37,12.83,4,12.78S504.31,284,504.31,284a13.29,13.29,0,0,1-7.91,0" transform="translate(-476.84 -244.8)"/></g></svg>